<?xml version="1.0" encoding="UTF-8" standalone="no"?>
<svg
   class="img-fluid"
   id="outputsvg"
   style="transform: matrix(1, 0, 0, 1, 0, 0); transform-origin: 50% 50%; cursor: move; transition: transform 200ms ease-in-out;"
   width="2048"
   height="2048"
   viewBox="0 0 20480 20480"
   version="1.1"
   sodipodi:docname="logo.svg"
   inkscape:version="1.2.2 (b0a8486541, 2022-12-01)"
   xmlns:inkscape="http://www.inkscape.org/namespaces/inkscape"
   xmlns:sodipodi="http://sodipodi.sourceforge.net/DTD/sodipodi-0.dtd"
   xmlns="http://www.w3.org/2000/svg"
   xmlns:svg="http://www.w3.org/2000/svg">
  <defs
     id="defs652" />
  <sodipodi:namedview
     id="namedview650"
     pagecolor="#ffffff"
     bordercolor="#000000"
     borderopacity="0.25"
     inkscape:showpageshadow="2"
     inkscape:pageopacity="0.0"
     inkscape:pagecheckerboard="0"
     inkscape:deskcolor="#d1d1d1"
     showgrid="false"
     inkscape:zoom="0.33642578"
     inkscape:cx="566.24673"
     inkscape:cy="1003.193"
     inkscape:window-width="1745"
     inkscape:window-height="896"
     inkscape:window-x="0"
     inkscape:window-y="0"
     inkscape:window-maximized="1"
     inkscape:current-layer="outputsvg" />
  <g
     id="l7QcHzH4GSvXJDyp2v3fbhp"
     fill="#000000"
     transform="matrix(1.3565843,0,0,1.3565843,-4009.2265,-3969.5211)"
     style="display:inline">
    <g
       id="g620"
       inkscape:label="g620">
      <path
         id="pLCzB3KLb"
         d="m 10405,17703 c -81,-98 -97,-138 -107,-260 -10,-129 -20,-153 -73,-169 -22,-7 -53,-19 -70,-28 -16,-9 -53,-16 -82,-16 -28,0 -73,-4 -100,-10 -26,-5 -113,-16 -193,-25 -80,-9 -185,-21 -235,-26 -195,-22 -579,-91 -605,-108 -14,-10 -63,-28 -108,-40 -46,-12 -145,-42 -220,-66 -76,-23 -231,-71 -347,-105 -151,-44 -245,-78 -333,-121 -67,-32 -125,-59 -128,-59 -9,0 -342,-178 -474,-253 -96,-55 -344,-210 -414,-260 -74,-51 -240,-147 -257,-147 -10,0 -20,-9 -24,-20 -8,-26 -238,-208 -292,-231 -24,-10 -43,-25 -43,-33 0,-8 -26,-36 -57,-63 -31,-26 -86,-75 -122,-109 -36,-33 -92,-82 -124,-109 -58,-49 -160,-158 -416,-448 -73,-84 -164,-186 -201,-227 -73,-82 -194,-255 -255,-364 -21,-38 -70,-112 -110,-165 -75,-102 -131,-189 -283,-446 -90,-152 -188,-344 -370,-730 -146,-308 -295,-784 -376,-1201 -34,-173 -82,-555 -105,-839 -18,-206 -31,-319 -46,-381 -2,-12 -39,-43 -87,-74 -94,-62 -88,-61 -289,-40 l -126,13 -54,-30 c -158,-88 -179,-104 -179,-138 0,-27 5,-34 28,-40 30,-7 130,-72 177,-116 33,-30 122,-72 265,-126 52,-20 97,-40 98,-44 2,-5 43,-9 92,-9 h 88 l 10,-42 c 6,-24 18,-105 27,-181 34,-299 89,-610 151,-856 74,-292 243,-815 302,-936 27,-55 77,-167 113,-250 89,-211 239,-503 351,-685 52,-85 101,-166 108,-180 69,-132 368,-532 639,-855 153,-182 460,-493 600,-606 57,-46 136,-111 175,-145 94,-81 204,-162 307,-226 46,-30 145,-94 219,-144 74,-49 155,-101 180,-115 25,-14 94,-54 154,-88 203,-116 369,-202 530,-272 89,-39 188,-86 222,-105 34,-18 191,-79 350,-134 542,-189 906,-291 1159,-325 66,-9 199,-29 295,-45 96,-16 232,-32 303,-36 l 127,-7 v -68 c 0,-65 14,-119 31,-119 4,0 14,-6 21,-12 8,-7 23,-18 33,-24 36,-20 60,-69 79,-161 17,-83 22,-94 61,-132 37,-36 48,-41 87,-41 49,0 98,26 129,70 10,14 31,70 47,125 l 28,100 40,12 c 21,6 52,14 68,18 31,7 31,4 8,167 l -8,57 41,5 c 22,3 162,19 310,36 340,39 593,81 760,125 505,134 644,177 1045,324 312,114 481,194 795,372 77,43 172,95 210,115 61,32 259,160 350,227 17,12 89,65 160,116 72,52 176,133 233,180 57,48 138,115 180,149 173,143 225,190 397,359 214,210 325,333 507,560 138,172 173,220 299,403 40,58 87,125 104,150 17,25 47,74 67,110 20,36 52,88 70,115 82,120 327,626 398,820 18,50 43,110 55,135 48,97 214,644 273,900 72,307 73,317 112,614 34,261 42,306 59,327 12,14 40,23 106,33 102,16 133,26 178,60 18,13 64,40 103,59 81,41 194,120 283,198 53,47 61,58 61,89 0,33 -5,39 -65,78 -109,72 -114,73 -329,71 -186,-1 -195,0 -234,22 -40,23 -54,44 -66,102 -4,15 -20,56 -37,90 -33,69 -34,74 -49,282 -34,459 -60,650 -139,1010 -58,263 -84,362 -169,635 -69,219 -82,253 -270,675 -116,262 -264,525 -449,800 -174,258 -247,360 -333,465 -46,57 -100,124 -119,150 -146,192 -477,543 -636,675 -33,28 -105,92 -160,143 -357,334 -733,608 -1142,831 -76,41 -133,78 -133,87 0,8 -9,14 -21,14 -23,0 -165,58 -319,130 -58,27 -152,67 -210,89 -58,22 -152,58 -210,81 -152,59 -597,203 -720,233 -337,82 -581,128 -782,147 -62,6 -122,13 -133,16 -11,2 -102,13 -201,23 -180,18 -182,18 -224,52 -48,39 -63,64 -96,163 -13,38 -57,127 -97,198 -72,127 -72,127 -109,128 -33,0 -42,-6 -93,-67 z m 213,-481 c 10,-14 12,-625 8,-3287 -3,-1798 -7,-3303 -8,-3343 l -3,-73 h 2361 c 1298,0 2387,2 2420,5 32,4 446,2 919,-3 956,-9 921,-7 1004,-77 l 41,-36 -21,-31 c -35,-51 -92,-108 -119,-119 -17,-7 -648,-9 -1935,-8 -1050,2 -2529,4 -3285,4 l -1375,1 V 7060 c 0,-2420 -2,-3201 -11,-3220 -7,-14 -31,-40 -54,-59 l -42,-34 -47,23 c -26,12 -65,38 -86,57 l -38,35 8,86 c 9,109 18,5704 9,6050 l -6,254 -3250,-5 -3249,-4 -47,22 c -26,12 -57,33 -69,46 -22,24 -22,24 -3,66 22,50 90,120 133,137 26,10 249,11 1107,4 591,-4 2045,-7 3230,-6 l 2155,3 v 3307 3307 l 30,32 c 43,45 142,91 180,83 17,-3 36,-13 43,-22 z m -586,-1184 c 3,-315 3,-587 1,-604 l -5,-32 -141,-6 c -284,-14 -461,-39 -712,-103 -434,-110 -956,-365 -1182,-578 -180,-169 -323,-358 -408,-538 -57,-121 -141,-367 -161,-475 -21,-110 -15,-424 10,-546 16,-80 16,-80 -6,-103 -13,-13 -32,-32 -43,-43 -24,-25 -25,-25 -107,110 -111,182 -148,289 -194,556 -47,273 -36,581 32,849 71,278 239,618 422,850 74,94 336,354 442,439 201,161 629,410 875,508 95,38 361,126 455,151 89,24 465,106 575,126 28,5 71,9 96,10 l 46,1 z m 2195,-268 c 384,-24 865,-123 1373,-283 117,-37 519,-196 635,-252 244,-116 643,-347 783,-452 119,-90 341,-283 403,-351 194,-212 445,-575 586,-847 23,-44 71,-128 106,-187 80,-133 325,-703 405,-943 45,-134 162,-581 186,-711 66,-360 74,-424 57,-498 l -6,-28 -32,31 c -18,17 -33,33 -33,36 0,3 -27,31 -60,63 -62,60 -127,170 -171,293 -56,156 -202,422 -362,659 -180,267 -550,694 -833,964 -441,419 -989,765 -1519,958 -166,60 -572,184 -730,222 -176,43 -455,91 -647,111 -326,33 -829,43 -1175,22 l -192,-12 -12,25 c -19,38 -26,1109 -8,1120 7,5 44,11 83,15 39,3 163,15 276,25 113,11 237,21 275,23 164,7 471,6 612,-3 z m -6067,-788 c -10,-31 -29,-107 -42,-167 -22,-103 -23,-131 -23,-455 0,-280 3,-369 18,-475 41,-288 89,-452 196,-670 83,-171 129,-246 236,-389 191,-255 342,-370 647,-490 290,-115 370,-131 653,-130 228,1 272,8 451,65 177,56 312,144 410,267 54,68 137,233 159,317 25,94 31,304 11,399 -30,145 -121,281 -234,350 -97,58 -156,71 -334,71 -87,0 -158,1 -158,2 0,2 37,31 83,65 94,70 190,118 297,147 315,88 703,-132 890,-503 109,-216 158,-524 115,-731 -42,-201 -148,-454 -270,-642 -174,-266 -495,-536 -795,-666 -261,-114 -594,-178 -920,-179 -310,-1 -545,50 -923,201 -258,103 -503,283 -779,569 -238,248 -371,440 -538,778 -128,262 -144,300 -185,454 -19,72 -51,166 -72,211 -34,76 -36,83 -24,117 27,76 83,182 149,283 37,57 104,160 147,229 107,171 333,468 542,711 74,87 298,319 307,319 2,0 -4,-26 -14,-58 z m 5985,-717 c 203,-19 530,-61 638,-81 102,-19 407,-95 507,-127 98,-31 348,-122 425,-154 251,-107 601,-295 790,-424 127,-87 390,-294 520,-408 93,-83 302,-291 442,-441 77,-83 249,-292 333,-406 36,-48 91,-119 123,-158 31,-39 72,-89 90,-111 17,-21 106,-136 195,-255 147,-193 172,-232 242,-375 93,-192 129,-252 206,-350 47,-59 65,-74 87,-74 20,-1 27,-6 27,-20 0,-20 68,-18 -1400,-33 -124,-1 -334,-1 -468,0 -241,2 -243,2 -251,25 -5,12 -45,61 -89,109 -44,48 -99,111 -122,140 -60,76 -156,176 -289,302 -494,465 -969,722 -1641,885 -390,95 -990,125 -1485,75 l -60,-6 3,919 c 2,505 7,921 11,925 6,7 270,43 371,51 139,11 649,6 795,-8 z m 144.021,-2838.115 c 0,-132.773 -107.633,-240.407 -240.406,-240.407 -132.774,0 -240.407,107.634 -240.407,240.407 0,132.773 107.633,240.407 240.407,240.407 132.773,0 240.406,-107.634 240.406,-240.407 z M 12123,11660 M 6258,9901 c 106,-8 116,-11 165,-43 118,-80 287,-174 478,-267 245,-120 349,-184 477,-295 266,-231 396,-414 567,-801 71,-161 157,-396 191,-524 27,-101 54,-309 54,-423 0,-88 5,-98 46,-98 h 34 v 85 85 h 64 c 56,0 66,3 71,20 3,11 14,20 23,21 9,0 46,10 80,22 l 64,22 56,105 c 84,156 152,304 152,333 0,37 21,77 40,77 21,0 93,137 178,340 206,495 240,585 342,910 54,173 78,235 102,265 28,36 48,90 48,130 v 35 h 274 274 l -5,-442 c -3,-244 0,-666 6,-938 20,-833 20,-829 -72,-930 -36,-41 -85,-121 -161,-265 -112,-211 -155,-285 -167,-285 -4,0 -9,8 -12,18 -3,9 -28,76 -55,147 -27,72 -71,198 -97,280 -117,374 -182,530 -249,595 -34,32 -42,35 -111,38 -73,4 -74,4 -81,-22 -8,-34 1,-211 16,-306 27,-168 -16,-379 -125,-615 -20,-44 -55,-125 -77,-180 -22,-55 -51,-120 -65,-145 -14,-25 -54,-110 -89,-190 -62,-141 -159,-314 -254,-455 -26,-38 -77,-115 -113,-170 -35,-55 -102,-142 -147,-193 -69,-79 -84,-92 -96,-80 -11,11 -244,511 -244,524 0,2 -42,111 -94,242 -52,130 -124,316 -161,412 -38,96 -98,249 -135,340 -37,91 -77,192 -89,225 -105,286 -238,571 -316,680 -156,217 -326,411 -458,523 -104,88 -265,201 -343,240 -92,46 -201,82 -294,98 -129,21 -130,21 -130,-23 0,-22 11,-61 27,-92 66,-126 319,-389 483,-500 96,-65 229,-171 264,-210 18,-20 19,-26 7,-84 -45,-216 -149,-506 -233,-643 -49,-82 -168,-230 -168,-210 0,33 -51,241 -91,368 -46,147 -65,194 -229,543 -157,333 -281,605 -308,675 -160,413 -220,629 -277,998 l -7,42 429,-1 c 235,0 479,-4 541,-8 z m 8795,-1277 c 111,-21 197,-49 317,-104 58,-26 134,-58 169,-71 73,-27 152,-93 181,-149 10,-20 38,-60 61,-90 23,-29 57,-87 75,-129 54,-125 59,-176 45,-458 -10,-226 -14,-257 -41,-351 -17,-56 -30,-109 -30,-118 0,-52 -214,-361 -424,-613 -364,-437 -629,-688 -1116,-1057 -316,-240 -718,-480 -1050,-627 -69,-30 -169,-76 -222,-101 -205,-95 -718,-274 -993,-346 -342,-89 -847,-180 -1001,-180 h -51 l -5,578 c -6,662 1,1410 13,1391 6,-10 25,-10 96,1 48,8 94,20 101,27 7,7 21,18 31,25 19,14 89,187 116,288 29,109 132,392 180,496 26,55 62,137 82,184 46,113 228,466 262,509 14,18 44,59 66,90 87,125 371,418 530,546 97,79 349,255 365,255 21,0 18,-23 -11,-82 -33,-65 -113,-168 -130,-168 -12,0 -25,-13 -62,-62 -15,-21 -35,-38 -43,-38 -7,0 -14,-4 -14,-8 0,-4 -50,-57 -111,-118 -143,-142 -198,-222 -215,-318 -7,-39 -13,-85 -13,-102 -1,-22 -8,-34 -26,-44 -14,-7 -25,-21 -25,-31 0,-9 -5,-19 -11,-21 -8,-3 -10,-22 -5,-62 6,-44 12,-59 26,-63 12,-3 21,-22 30,-63 12,-55 39,-100 60,-100 21,0 70,-63 70,-91 0,-27 3,-29 35,-29 24,0 35,5 35,15 0,9 9,15 25,15 15,0 25,6 25,14 0,8 8,18 18,21 9,4 39,32 66,63 179,206 562,574 731,701 143,109 264,181 525,314 304,154 465,212 712,257 177,32 394,33 551,4 z M 5884,7027 c 3,-40 11,-103 16,-142 6,-38 14,-99 18,-135 l 7,-65 50,-1 c 28,-1 56,-2 63,-3 6,-1 12,-12 12,-26 0,-14 5,-25 10,-25 6,0 10,-5 10,-11 0,-7 9,-19 19,-28 15,-13 20,-33 23,-89 2,-53 0,-72 -9,-72 -15,0 -18,-67 -5,-88 13,-19 208,-57 287,-55 89,2 149,22 153,51 2,15 21,30 63,49 32,15 59,34 59,42 0,10 6,8 19,-7 32,-37 101,-22 101,22 0,10 9,16 25,16 14,0 25,-4 25,-10 0,-13 67,-13 75,0 9,15 25,2 25,-21 0,-12 -7,-19 -20,-19 -13,0 -20,-7 -20,-19 0,-10 -7,-21 -15,-25 -11,-4 -15,-21 -14,-63 1,-84 18,-126 57,-138 18,-5 32,-13 32,-17 0,-4 20,-8 45,-8 38,0 45,3 45,20 0,15 7,20 25,20 18,0 25,-5 25,-20 0,-16 7,-20 31,-20 34,0 59,19 59,46 0,14 3,13 20,-6 15,-18 26,-21 52,-16 18,3 50,8 71,12 20,3 37,10 37,15 0,5 12,9 26,9 14,0 32,7 41,16 9,8 22,13 30,10 8,-3 20,-6 27,-6 7,0 21,-19 31,-42 10,-24 30,-70 45,-103 15,-33 48,-107 73,-165 25,-58 74,-170 109,-250 76,-174 173,-334 246,-407 l 53,-53 h 103 c 67,0 118,5 149,16 l 47,16 v 51 c 0,29 -4,78 -10,111 l -9,58 90,101 c 98,109 229,280 302,395 26,40 47,74 47,77 0,2 21,37 48,77 26,41 72,126 102,191 51,108 57,117 79,112 13,-3 30,-13 38,-20 19,-20 109,-19 147,0 15,8 44,15 63,15 89,0 142,74 143,200 l 1,55 35,-95 c 30,-85 60,-157 83,-200 5,-10 27,-16 62,-18 56,-3 99,12 99,36 0,16 77,112 90,112 5,0 12,-9 15,-20 8,-24 65,-28 87,-6 13,12 38,19 118,33 19,3 38,10 41,16 7,10 17,-1926 11,-2157 l -4,-146 h -29 c -68,0 -531,83 -699,125 -52,13 -171,42 -265,65 -204,50 -632,191 -772,254 -56,25 -139,61 -185,80 -137,56 -428,193 -498,235 -36,21 -94,53 -130,71 -36,18 -114,65 -175,105 -60,39 -173,112 -250,161 -240,152 -446,313 -700,548 -159,146 -152,139 -335,341 -247,273 -547,644 -599,743 -10,19 -9,22 9,22 11,0 20,4 20,10 0,5 21,21 48,36 26,15 61,42 78,61 l 31,34 13,-31 c 11,-26 17,-30 52,-30 28,0 40,5 45,18 15,39 37,47 120,44 l 80,-3 z" />
      <path
         id="pQ5AbtUqf"
         d="m 9555,15944 c -12,-12 -15,-32 -13,-78 l 3,-61 56,-3 c 42,-2 61,1 73,13 18,18 21,80 6,119 -8,23 -15,26 -59,26 -32,0 -55,-6 -66,-16 z" />
      <path
         id="p1Cdmdt031"
         d="m 8990,15699 v -40 l 43,3 c 41,3 42,4 45,41 l 3,37 h -45 -46 z" />
      <path
         id="paTcfukaM"
         d="m 8692.9729,15546.259 c 0,53.553 -43.4133,96.966 -96.9662,96.966 -53.553,0 -96.9663,-43.413 -96.9663,-96.966 0,-53.553 43.4133,-96.966 96.9663,-96.966 53.5529,0 96.9662,43.413 96.9662,96.966 z M 8522,15622" />
      <path
         id="pC5S54WpJ"
         d="m 8162,15438 c -18,-18 -15,-123 4,-139 10,-8 44,-13 92,-14 67,0 77,2 80,18 7,34 -8,86 -34,117 -23,26 -32,30 -78,30 -29,0 -57,-5 -64,-12 z" />
      <path
         id="p4VvUf4fh"
         d="m 8012.4816,15025.588 c 0,53.423 -43.308,96.731 -96.7311,96.731 -53.4231,0 -96.7311,-43.308 -96.7311,-96.731 0,-53.423 43.308,-96.731 96.7311,-96.731 53.4231,0 96.7311,43.308 96.7311,96.731 z M 7847,15092" />
      <path
         id="p6lNERK0Q"
         d="m 7546,14789 c -22,-17 -26,-28 -26,-69 0,-61 16,-72 103,-68 l 62,3 3,78 3,77 h -59 c -45,0 -66,-5 -86,-21 z" />
      <path
         id="pJZJOErHb"
         d="m 11962,15103 c 3,-47 4,-48 39,-51 19,-2 48,2 63,7 24,10 27,15 24,48 l -3,38 -63,3 -63,3 z" />
      <path
         id="p1Ey5rseqL"
         d="m 11312,15118 c -18,-18 -16,-104 4,-112 20,-8 62,-7 92,0 21,6 23,11 20,63 l -3,56 -50,3 c -30,2 -55,-2 -63,-10 z" />
      <path
         id="pcr6rllyd"
         d="m 13260,14958 c 0,-13 3,-40 6,-60 6,-36 8,-38 45,-38 38,0 39,1 39,34 0,19 -4,38 -10,41 -5,3 -10,15 -10,26 0,15 -7,19 -35,19 -30,0 -35,-3 -35,-22 z" />
      <path
         id="p12N0gc20H"
         d="m 13636.673,14795.898 c 0,32.383 -26.251,58.634 -58.634,58.634 -32.382,0 -58.634,-26.251 -58.634,-58.634 0,-32.383 26.252,-58.634 58.634,-58.634 32.383,0 58.634,26.251 58.634,58.634 z M 13536,14831" />
      <path
         id="pzD26ocU6"
         d="m 13850,14718 c -27,-45 -27,-104 2,-119 21,-11 116,-7 138,6 11,7 13,86 4,123 -6,20 -13,22 -65,22 -56,0 -60,-2 -79,-32 z" />
      <path
         id="pwGV2TpZC"
         d="m 14261,14586 c -7,-8 -11,-32 -9,-53 3,-35 6,-38 36,-41 17,-2 32,-7 32,-12 0,-11 40,-52 72,-74 12,-9 37,-16 55,-16 32,0 33,1 33,40 0,33 -4,42 -25,52 -15,7 -25,20 -25,32 0,32 -28,66 -55,66 -13,0 -27,5 -30,10 -9,15 -71,12 -84,-4 z" />
      <path
         id="p1HY603OZA"
         d="m 14956.162,14210.015 c 0,47.76 -38.716,86.477 -86.476,86.477 -47.759,0 -86.476,-38.717 -86.476,-86.477 0,-47.759 38.717,-86.476 86.476,-86.476 47.76,0 86.476,38.717 86.476,86.476 z M 14817,14282" />
      <path
         id="pbdPobvr4"
         d="m 15554.408,13800.513 c 0,53.551 -43.412,96.963 -96.963,96.963 -53.551,0 -96.962,-43.412 -96.962,-96.963 0,-53.551 43.411,-96.962 96.962,-96.962 53.551,0 96.963,43.411 96.963,96.962 z M 15385,13865" />
      <path
         id="p14HTRuvDW"
         d="m 15753,13563 c -8,-3 -13,-24 -13,-53 0,-41 4,-52 26,-69 29,-23 85,-28 128,-11 36,13 36,67 0,109 -23,28 -32,31 -77,30 -29,0 -58,-3 -64,-6 z" />
      <path
         id="pl3w4Ar7I"
         d="m 15400,11701 v -41 h 41 40 l -3,38 c -3,35 -5,37 -40,40 l -38,3 z" />
      <path
         id="pFRf0qvWY"
         d="m 15005,8077 c -53,-30 -75,-55 -75,-86 0,-28 3,-31 33,-31 19,0 50,12 76,30 57,39 102,39 162,2 73,-47 120,-112 133,-184 6,-36 9,-38 43,-38 h 36 l -6,59 c -7,66 -36,147 -69,191 -32,43 -120,70 -227,69 -47,-1 -95,-6 -106,-12 z" />
      <path
         id="po5YLNIoS"
         d="m 14030,6230 c -15,-15 -20,-33 -20,-78 0,-85 6,-89 138,-96 l 112,-7 v 35 c 0,25 -5,36 -19,41 -34,10 -71,46 -91,86 -19,35 -24,39 -60,39 -27,0 -47,-7 -60,-20 z" />
      <path
         id="p3ky5CKzc"
         d="m 11453,4965 c -9,-26 3,-117 18,-126 16,-10 90,-12 113,-3 12,5 16,21 16,69 0,72 -3,75 -86,75 -40,0 -56,-4 -61,-15 z" />
      <path
         id="pMsK3NYd2"
         d="m 6845,5990 c -16,-5 -36,-17 -42,-27 -14,-18 -17,-101 -5,-120 13,-21 61,-33 128,-33 96,0 104,7 104,89 0,51 -4,72 -16,82 -20,16 -128,22 -169,9 z" />
      <path
         id="pMFYTSbxf"
         d="m 9340,5667 c -22,-11 -25,-20 -28,-77 -4,-81 6,-90 99,-90 91,0 119,21 119,91 0,70 -21,89 -102,89 -35,0 -74,-6 -88,-13 z" />
      <path
         id="pVDNaDQxv"
         d="m 9152.0635,5605.2916 c 0,34.5193 -27.9834,62.5027 -62.5027,62.5027 -34.5192,0 -62.5026,-27.9834 -62.5026,-62.5027 0,-34.5193 27.9834,-62.5027 62.5026,-62.5027 34.5193,0 62.5027,27.9834 62.5027,62.5027 z M 9030,5622" />
      <path
         id="pJmhhrCE5"
         d="m 9340,5333 c -23,-9 -30,-24 -30,-71 0,-67 31,-92 114,-92 75,0 96,14 96,65 0,46 -17,81 -47,94 -25,11 -107,14 -133,4 z" />
      <path
         id="pOgEUHJGT"
         d="m 9030,5262 c 0,-58 15,-75 62,-70 33,3 33,3 33,58 v 55 l -47,3 -48,3 z" />
      <path
         id="pzWXGqkJP"
         d="m 9185.7648,4932.6025 c 0,56.9629 -46.1776,103.1405 -103.1405,103.1405 -56.9629,0 -103.1404,-46.1776 -103.1404,-103.1405 0,-56.9628 46.1775,-103.1404 103.1404,-103.1404 56.9629,0 103.1405,46.1776 103.1405,103.1404 z M 9035,5023" />
      <path
         id="pjDYbEjiu"
         d="m 9349,4964 c -21,-25 -24,-129 -5,-159 15,-23 22,-25 100,-25 106,0 116,9 116,103 0,89 -9,97 -114,97 -64,0 -87,-4 -97,-16 z" />
    </g>
  </g>
</svg>
